<svg width="48" height="49" viewBox="0 0 48 49" fill="none" xmlns="http://www.w3.org/2000/svg">
<rect y="0.129883" width="48" height="48" rx="24" fill="#68CC58"/>
<path d="M24 10.7964C16.64 10.7964 10.6667 16.7697 10.6667 24.1297C10.6667 31.4897 16.64 37.4631 24 37.4631C31.36 37.4631 37.3333 31.4897 37.3333 24.1297C37.3333 16.7697 31.36 10.7964 24 10.7964ZM22.6667 34.7031C17.4 34.0497 13.3333 29.5697 13.3333 24.1297C13.3333 23.3031 13.44 22.5164 13.6133 21.7431L20 28.1297V29.4631C20 30.9297 21.2 32.1297 22.6667 32.1297V34.7031ZM31.8667 31.3164C31.52 30.2364 30.5333 29.4631 29.3333 29.4631H28V25.4631C28 24.7297 27.4 24.1297 26.6667 24.1297H18.6667V21.4631H21.3333C22.0667 21.4631 22.6667 20.8631 22.6667 20.1297V17.4631H25.3333C26.8 17.4631 28 16.2631 28 14.7964V14.2497C31.9067 15.8364 34.6667 19.6631 34.6667 24.1297C34.6667 26.9031 33.6 29.4231 31.8667 31.3164Z" fill="#0F0F10"/>
</svg>
