<svg width="48" height="49" viewBox="0 0 48 49" fill="none" xmlns="http://www.w3.org/2000/svg">
<rect y="0.129883" width="48" height="48" rx="24" fill="#68CC58"/>
<path d="M23.9867 10.7964C16.6267 10.7964 10.6667 16.7697 10.6667 24.1297C10.6667 31.4897 16.6267 37.4631 23.9867 37.4631C31.36 37.4631 37.3333 31.4897 37.3333 24.1297C37.3333 16.7697 31.36 10.7964 23.9867 10.7964ZM24 34.7964C18.1067 34.7964 13.3333 30.0231 13.3333 24.1297C13.3333 18.2364 18.1067 13.4631 24 13.4631C29.8933 13.4631 34.6667 18.2364 34.6667 24.1297C34.6667 30.0231 29.8933 34.7964 24 34.7964ZM28.6667 22.7964C29.7733 22.7964 30.6667 21.9031 30.6667 20.7964C30.6667 19.6897 29.7733 18.7964 28.6667 18.7964C27.56 18.7964 26.6667 19.6897 26.6667 20.7964C26.6667 21.9031 27.56 22.7964 28.6667 22.7964ZM19.3333 22.7964C20.44 22.7964 21.3333 21.9031 21.3333 20.7964C21.3333 19.6897 20.44 18.7964 19.3333 18.7964C18.2267 18.7964 17.3333 19.6897 17.3333 20.7964C17.3333 21.9031 18.2267 22.7964 19.3333 22.7964ZM24 31.4631C27.1067 31.4631 29.7467 29.5164 30.8133 26.7964H17.1867C18.2533 29.5164 20.8933 31.4631 24 31.4631Z" fill="#0F0F10"/>
</svg>
