<svg width="110" height="52" viewBox="0 0 110 52" fill="none" xmlns="http://www.w3.org/2000/svg">
<g id="svg12094651052">
<path id="Vector" d="M48.591 41.349L34.628 32.685C33.662 34.147 32.355 35.439 30.784 36.245C26.642 38.369 21.437 37.413 18.429 33.86C18.122 33.497 17.816 33.115 17.598 32.692L3.77599 41.292C3.57299 41.429 3.34999 41.561 3.16299 41.715L3.14599 41.73C3.11299 41.64 3.14999 41.447 3.15199 41.342L3.16299 33.824C3.22199 33.737 3.38999 33.674 3.48299 33.615L11.711 28.522C12.957 27.76 14.205 26.953 15.503 26.282L3.16499 18.707L3.17299 10.983L17.501 19.799C21.894 14.231 30.379 14.123 34.69 19.841L48.324 11.399C49.184 10.875 49.053 10.831 49.053 11.7L49.056 18.714C49.012 18.78 48.933 18.796 48.862 18.82C48.547 18.926 48.231 19.176 47.949 19.354L38.06 25.469C37.621 25.747 37.186 26.036 36.709 26.246C37.472 26.638 38.2 27.138 38.935 27.582L48.692 33.596C48.796 33.653 48.986 33.692 49.047 33.806C49.071 33.851 49.048 34.938 49.048 35.066L49.06 41.643C48.974 41.529 48.719 41.426 48.591 41.349ZM25.962 21.981C25.588 22.001 25.234 22.037 24.872 22.138C21.473 23.088 20.489 27.457 23.213 29.846C24.083 30.61 25.155 30.896 26.293 30.882C27.535 30.786 28.622 30.348 29.451 29.392C32.052 26.393 29.82 21.923 25.962 21.981Z" fill="white"/>
<path id="Vector_2" d="M109.096 28.7271C109.096 29.8471 108.938 30.8441 108.623 31.7171C108.326 32.5901 107.887 33.3321 107.307 33.9411C106.744 34.5351 106.056 34.9881 105.245 35.3011C104.433 35.5971 103.514 35.7461 102.486 35.7461C101.542 35.7461 100.665 35.5971 99.853 35.3011C99.058 34.9881 98.371 34.5351 97.791 33.9411C97.211 33.3321 96.755 32.5901 96.424 31.7171C96.109 30.8441 95.953 29.8471 95.953 28.7271C95.953 27.2281 96.217 25.9671 96.748 24.9461C97.277 23.9081 98.039 23.1171 99.034 22.5731C100.027 22.0291 101.203 21.7581 102.561 21.7581C103.836 21.7581 104.963 22.0291 105.94 22.5731C106.917 23.1171 107.687 23.9081 108.251 24.9461C108.814 25.9671 109.096 27.2281 109.096 28.7271ZM99.729 28.7271C99.729 29.6171 99.82 30.3661 100.002 30.9761C100.201 31.5691 100.507 32.0221 100.921 32.3351C101.335 32.6321 101.874 32.7801 102.537 32.7801C103.199 32.7801 103.729 32.6321 104.126 32.3351C104.541 32.0221 104.838 31.5691 105.021 30.9761C105.22 30.3661 105.319 29.6171 105.319 28.7271C105.319 27.8371 105.22 27.0961 105.021 26.5031C104.838 25.9091 104.541 25.4651 104.126 25.1681C103.712 24.8711 103.174 24.7231 102.512 24.7231C101.535 24.7231 100.822 25.0611 100.375 25.7361C99.944 26.3961 99.729 27.3921 99.729 28.7271Z" fill="white"/>
<path id="Vector_3" d="M84.394 20.5461C84.394 21.2051 84.369 21.8401 84.319 22.4491C84.286 23.0591 84.253 23.4871 84.22 23.7351H84.418C84.716 23.2731 85.064 22.9031 85.462 22.6221C85.859 22.3261 86.298 22.1121 86.779 21.9801C87.276 21.8321 87.797 21.7581 88.344 21.7581C89.321 21.7581 90.174 21.9301 90.903 22.2761C91.632 22.6221 92.195 23.1581 92.593 23.8831C93.007 24.6081 93.214 25.5471 93.214 26.7001V35.4981H89.512V27.6151C89.512 26.6431 89.33 25.9181 88.965 25.4401C88.617 24.9461 88.071 24.6981 87.325 24.6981C86.58 24.6981 85.992 24.8711 85.561 25.2171C85.147 25.5631 84.849 26.0661 84.667 26.7251C84.485 27.3841 84.394 28.1911 84.394 29.1471V35.4981H80.692V16.7161H84.394V20.5461Z" fill="white"/>
<path id="Vector_4" d="M73.693 35.7461C72.352 35.7461 71.209 35.5071 70.265 35.0291C69.321 34.5351 68.6 33.7771 68.103 32.7551C67.606 31.7341 67.358 30.4241 67.358 28.8261C67.358 27.1781 67.639 25.8351 68.203 24.7971C68.766 23.7591 69.544 22.9931 70.538 22.4991C71.548 22.0051 72.708 21.7581 74.016 21.7581C74.944 21.7581 75.747 21.8481 76.426 22.0291C77.122 22.2111 77.727 22.4251 78.24 22.6721L77.147 25.5141C76.567 25.2831 76.021 25.0941 75.507 24.9461C75.01 24.7971 74.513 24.7231 74.016 24.7231C73.37 24.7231 72.832 24.8801 72.401 25.1931C71.971 25.4891 71.648 25.9421 71.432 26.5521C71.234 27.1451 71.134 27.8951 71.134 28.8011C71.134 29.6911 71.242 30.4321 71.457 31.0251C71.689 31.6021 72.02 32.0391 72.451 32.3351C72.882 32.6151 73.403 32.7551 74.016 32.7551C74.795 32.7551 75.482 32.6561 76.079 32.4591C76.675 32.2441 77.254 31.9561 77.818 31.5941V34.7321C77.254 35.0951 76.658 35.3501 76.029 35.4981C75.416 35.6631 74.637 35.7461 73.693 35.7461Z" fill="white"/>
<path id="Vector_5" d="M65.033 35.498H54.821V17.853H65.033V20.917H58.573V24.797H64.586V27.862H58.573V32.409H65.033V35.498Z" fill="white"/>
</g>
</svg>
