<svg width="156" height="40" viewBox="0 0 156 40" fill="none" xmlns="http://www.w3.org/2000/svg">
<g id="svg11665919779" clip-path="url(#clip0_2_1578)">
<path id="Vector" d="M20.058 7.40199L20.059 9.06399C20.059 9.41999 20.108 9.83999 20.017 10.185C19.539 12.001 17.098 11.817 16.746 10.206C16.688 9.94199 16.703 9.66099 16.703 9.39199L16.709 4.55399C16.628 4.50699 15.356 4.53899 15.196 4.53899L7.85498 4.54299C7.43898 4.54399 6.97998 4.50699 6.57398 4.58799C5.14398 4.86999 4.19798 5.76299 3.86498 7.21199C3.74098 7.75099 3.77598 8.32199 3.77598 8.87099L3.79198 10.263C3.88098 10.367 4.13298 10.542 4.25898 10.656L10.638 16.234C11.212 16.74 11.847 17.218 12.341 17.806C14.574 20.468 13.899 24.197 11.273 26.321C7.74098 29.178 2.33198 27.493 0.810981 23.207C0.533981 22.429 0.414981 21.681 0.414981 20.86L0.411981 8.67699C0.411981 8.23799 0.390981 7.78499 0.423981 7.34799C0.681981 4.01999 3.22998 1.58299 6.50298 1.25499L12.532 1.23999L29.864 1.24099C33.039 1.25499 35.641 3.63299 36.221 6.71699C36.328 7.28499 36.323 7.82899 36.324 8.40499L36.322 20.546C36.322 22.044 35.994 23.537 35.126 24.789C33.044 27.797 28.896 28.697 25.856 26.598C23.178 24.748 22.133 21.174 23.941 18.38C24.309 17.811 24.79 17.378 25.291 16.929L28.034 14.486L32.654 10.513C32.743 10.433 32.871 10.37 32.937 10.274C32.996 10.188 33.003 7.38399 32.851 6.93799L32.674 6.47699C32.057 5.19999 30.899 4.53899 29.509 4.53899L20.056 4.53999L20.058 7.40199ZM3.77598 14.674L3.77398 19.673C3.77498 19.964 3.76198 20.271 3.82298 20.556C4.17398 22.183 6.11498 22.364 7.23598 21.297C7.75198 20.73 7.94398 20.02 7.90498 19.265C7.85798 18.356 7.36798 17.82 6.71998 17.241L3.77598 14.674ZM32.956 14.712L30.753 16.62C29.951 17.317 28.94 18.009 28.845 19.165C28.786 19.895 28.9 20.615 29.39 21.189L29.561 21.367C30.937 22.59 32.934 21.953 32.955 20.08L32.956 14.712Z" fill="white"/>
<path id="Vector_2" d="M18.806 39.116L9.75201 39.121L9.75501 38.18C9.76701 37.344 9.97001 36.531 10.521 35.873C11.762 34.393 13.095 34.95 14.72 34.786C15.829 34.673 16.741 33.623 16.596 32.506C16.54 32.066 16.069 31.909 15.758 31.671C12.789 29.399 14.208 24.801 17.946 24.343L18.254 24.329C22.456 24.337 24.203 29.479 20.658 31.936C20.291 32.19 20.137 32.319 20.14 32.802C20.148 34.212 21.42 34.815 22.662 34.813L23.741 34.807C23.973 34.806 24.225 34.798 24.455 34.833C25.682 35.021 26.675 36.107 26.902 37.297C27.015 37.889 26.984 38.514 26.988 39.114L18.806 39.116Z" fill="white"/>
<path id="Vector_3" d="M60.847 26.912V7.64502H64.817V26.912H60.847ZM50.68 26.912V7.64502H54.65V26.912H50.68ZM53.479 18.643V15.357H61.49L61.475 18.643H53.479Z" fill="white"/>
<path id="Vector_4" d="M72.617 27.071C71.189 27.071 70.061 26.7 69.233 25.958C68.404 25.216 67.99 24.209 67.99 22.937C67.99 21.85 68.352 20.975 69.076 20.313C69.799 19.65 70.956 19.169 72.546 18.868C73.05 18.78 73.564 18.7 74.088 18.63C74.621 18.559 75.154 18.497 75.687 18.444C76.22 18.382 76.734 18.334 77.229 18.299V17.411C77.229 16.554 77.039 15.949 76.658 15.595C76.287 15.233 75.659 15.052 74.773 15.052C73.907 15.052 73.241 15.233 72.774 15.595C72.317 15.957 72.108 16.589 72.146 17.49H68.476C68.371 16.404 68.557 15.463 69.033 14.668C69.518 13.864 70.256 13.25 71.246 12.826C72.236 12.393 73.436 12.176 74.845 12.176C76.882 12.176 78.429 12.627 79.486 13.528C80.542 14.42 81.071 15.741 81.071 17.49V26.912H77.215L77.229 23.599C77.077 24.315 76.782 24.933 76.344 25.454C75.916 25.975 75.383 26.377 74.745 26.66C74.107 26.934 73.398 27.071 72.617 27.071ZM74.059 24.513C74.507 24.513 74.959 24.425 75.416 24.248C75.882 24.063 76.282 23.824 76.615 23.533C76.949 23.241 77.153 22.923 77.229 22.579V20.127C77.03 20.163 76.777 20.202 76.473 20.246C76.178 20.291 75.882 20.339 75.587 20.392C75.292 20.436 75.04 20.481 74.83 20.525C73.85 20.728 73.136 20.997 72.688 21.333C72.241 21.66 72.017 22.124 72.017 22.724C72.017 23.29 72.203 23.732 72.574 24.05C72.946 24.359 73.441 24.513 74.059 24.513Z" fill="white"/>
<path id="Vector_5" d="M84.244 26.912V24.248H96.039V26.912H84.244ZM84.001 15.503V12.428H89.271V15.503H84.001ZM86.857 26.647V17.305C86.857 16.704 86.957 16.271 87.157 16.006C87.367 15.732 87.733 15.564 88.257 15.503L86.857 14.535V12.428H90.142L90.413 16.364C90.613 15.472 90.951 14.712 91.427 14.085C91.903 13.457 92.479 12.98 93.155 12.654C93.84 12.318 94.578 12.15 95.368 12.15C96.701 12.15 97.725 12.649 98.439 13.647C99.152 14.646 99.467 16.121 99.381 18.073H95.882C95.873 17.11 95.706 16.417 95.382 15.993C95.058 15.56 94.544 15.344 93.84 15.344C93.193 15.344 92.565 15.525 91.955 15.887C91.346 16.24 90.899 16.678 90.613 17.199V22.685C90.613 23.118 90.527 23.467 90.356 23.732C90.194 23.997 89.951 24.169 89.628 24.248L90.613 24.911L90.642 26.647H86.857Z" fill="white"/>
<path id="Vector_6" d="M100.569 26.912V12.441H103.611L103.882 16.629L103.74 16.377C103.864 15.07 104.254 14.04 104.911 13.29C105.577 12.53 106.419 12.15 107.438 12.15C107.981 12.15 108.438 12.274 108.809 12.521C109.19 12.76 109.475 13.157 109.666 13.714C109.865 14.27 109.937 15.017 109.88 15.953L109.837 16.775V26.912H106.91V16.907C106.91 16.333 106.824 15.918 106.652 15.662C106.491 15.397 106.224 15.264 105.853 15.264C105.434 15.264 105.053 15.405 104.711 15.688C104.368 15.962 104.102 16.426 103.911 17.079V26.912H100.569ZM112.807 26.912V16.907C112.807 16.368 112.721 15.962 112.551 15.688C112.388 15.405 112.107 15.264 111.708 15.264C111.26 15.264 110.87 15.41 110.537 15.701C110.213 15.993 109.98 16.452 109.837 17.079L109.294 17.623L109.737 16.602C109.851 15.233 110.246 14.151 110.923 13.356C111.598 12.552 112.494 12.15 113.607 12.15C114.435 12.15 115.064 12.45 115.492 13.051C115.93 13.643 116.149 14.571 116.149 15.834V26.912H112.807Z" fill="white"/>
<path id="Vector_7" d="M125.048 27.1111C123.64 27.1111 122.411 26.8191 121.364 26.2361C120.317 25.6441 119.503 24.7921 118.923 23.6791C118.341 22.5651 118.051 21.2271 118.051 19.6631C118.051 18.1001 118.355 16.7611 118.966 15.6481C119.584 14.5261 120.431 13.6651 121.507 13.0641C122.583 12.4641 123.806 12.1631 125.177 12.1631C126.615 12.1631 127.852 12.4681 128.889 13.0781C129.937 13.6781 130.741 14.5351 131.303 15.6481C131.874 16.7611 132.16 18.0781 132.16 19.5971C132.16 21.2051 131.846 22.5701 131.217 23.6921C130.599 24.8051 129.752 25.6531 128.676 26.2361C127.609 26.8191 126.4 27.1111 125.048 27.1111ZM125.12 24.0501C125.995 24.0501 126.724 23.7091 127.304 23.0291C127.895 22.3491 128.19 21.2091 128.19 19.6101C128.19 18.0561 127.9 16.9381 127.319 16.2581C126.738 15.5691 125.995 15.2241 125.091 15.2241C124.206 15.2241 123.473 15.5641 122.892 16.2451C122.321 16.9161 122.035 18.0251 122.035 19.5711C122.035 21.1611 122.335 22.3051 122.935 23.0031C123.535 23.7011 124.263 24.0501 125.12 24.0501Z" fill="white"/>
<path id="Vector_8" d="M135.748 26.912V12.428H139.188L139.56 17.888L139.346 16.788C139.555 15.251 140.041 14.093 140.802 13.316C141.574 12.539 142.65 12.15 144.03 12.15C145.515 12.15 146.629 12.596 147.371 13.488C148.114 14.381 148.485 15.662 148.485 17.331V26.912H144.573V18.497C144.573 17.367 144.41 16.554 144.086 16.059C143.764 15.564 143.216 15.317 142.444 15.317C141.826 15.317 141.274 15.476 140.788 15.794C140.313 16.112 139.936 16.545 139.661 17.093V26.912H135.748Z" fill="white"/>
<path id="Vector_9" d="M152.972 32.7161V29.4831H154.315C155 29.4831 155.538 29.4211 155.929 29.2971C156.328 29.1821 156.628 29.0101 156.828 28.7801C157.028 28.5601 157.18 28.3031 157.285 28.0121C157.408 27.6941 157.537 27.4461 157.67 27.2701C157.804 27.1021 158.032 26.9831 158.356 26.9121H156.656L151.287 12.4551H155.642L157.67 19.4911L158.841 23.2281H158.97L160.055 19.5041L162.04 12.4551H166.367L161.14 26.9121C160.807 27.8661 160.445 28.7051 160.055 29.4301C159.674 30.1541 159.227 30.7591 158.713 31.2451C158.198 31.7311 157.571 32.0981 156.828 32.3451C156.095 32.5921 155.2 32.7161 154.143 32.7161H152.972Z" fill="white"/>
</g>
<defs>
<clipPath id="clip0_2_1578">
<rect width="167" height="39" fill="white" transform="translate(0 0.780029)"/>
</clipPath>
</defs>
</svg>
