<svg width="118" height="30" viewBox="0 0 118 30" fill="none" xmlns="http://www.w3.org/2000/svg">
<g id="svg10577719447" clip-path="url(#clip0_2_1481)">
<path id="Vector" d="M16.978 2.63898C15.209 2.23398 13.542 3.34798 13.081 4.89498C12.96 5.29998 13.008 5.76098 13.008 6.17898L13.012 14.497C13.012 14.783 13.028 15.076 13.009 15.36C12.981 15.789 12.537 15.818 12.196 15.633L8.02699 13.162C7.93799 13.108 7.72399 13.023 7.66799 12.952L7.65799 16.581C7.65799 16.809 7.65299 17.032 7.69899 17.257L7.79199 17.804C8.33199 20.408 10.543 22.517 13.38 23.04C13.602 23.081 13.85 23.095 14.06 23.171L14.074 29.526C11.269 29.163 8.58299 28.17 6.40299 26.486C3.23999 24.045 1.29499 20.871 0.771992 17.137L0.671992 16.36C0.619992 15.749 0.625992 14.861 0.675992 14.249L0.782992 13.432C1.41799 9.05998 4.10699 5.28698 8.28399 3.01798C10.536 1.79498 12.973 1.18798 15.565 1.01698C18.885 0.970982 21.683 1.56698 24.572 3.17498C30.276 6.34998 33.007 12.824 31.472 18.705C30.019 24.274 25.224 28.406 19.102 29.44C18.896 29.475 18.678 29.489 18.477 29.535L18.463 23.134C18.811 23.082 19.161 23.051 19.505 22.977C22.408 22.358 24.644 19.767 24.843 17.079C24.872 16.695 24.851 16.298 24.851 15.912V14.143C24.851 13.744 24.822 13.324 24.866 12.928L24.869 12.903C24.144 13.396 23.358 13.814 22.607 14.272L20.96 15.252C20.73 15.389 20.506 15.562 20.266 15.68C20.037 15.793 19.659 15.719 19.559 15.482C19.515 15.378 19.536 15.224 19.535 15.113L19.537 6.27798C19.537 5.56498 19.573 5.00598 19.258 4.32998C18.838 3.43198 17.98 2.89298 16.978 2.63898Z" fill="white"/>
<path id="Vector_2" d="M105.65 25.98V10.628H109.214V13.186H109.626C110.234 11.245 111.46 10.275 113.306 10.275C114.68 10.275 115.74 10.745 116.486 11.687C117.231 12.608 117.605 13.932 117.605 15.657V25.98H114.042V16.275C114.042 14.275 113.296 13.275 111.804 13.275C111.078 13.275 110.459 13.49 109.95 13.922C109.459 14.333 109.214 14.922 109.214 15.686V25.98H105.65Z" fill="white"/>
<path id="Vector_3" d="M96.88 26.333C95.879 26.333 94.956 26.176 94.112 25.862C93.288 25.529 92.582 25.039 91.993 24.392C91.404 23.725 90.943 22.892 90.609 21.892C90.295 20.872 90.138 19.676 90.138 18.304C90.138 15.539 90.687 13.51 91.787 12.216C92.906 10.922 94.496 10.275 96.557 10.275C98.617 10.275 100.198 10.922 101.296 12.216C102.416 13.51 102.975 15.539 102.975 18.304V19.157H93.877V20.157C93.877 21.176 94.162 21.98 94.731 22.568C95.3 23.157 96.086 23.451 97.086 23.451C97.931 23.451 98.637 23.274 99.206 22.921C99.795 22.549 100.295 22.019 100.707 21.333L102.651 23.362C102.082 24.264 101.316 24.99 100.354 25.539C99.393 26.068 98.235 26.333 96.88 26.333ZM96.557 13.01C94.77 13.01 93.877 14.069 93.877 16.186V16.951H99.236V16.186C99.236 14.069 98.343 13.01 96.557 13.01Z" fill="white"/>
<path id="Vector_4" d="M80.4 25.9801L75.865 10.6281H79.458L81.666 18.8041L82.52 22.9511H82.932L83.786 18.8041L85.994 10.6281H89.439L84.904 25.9801H80.4Z" fill="white"/>
<path id="Vector_5" d="M73.3 25.98C71.711 25.98 70.876 25.108 70.798 23.362H70.445C70.248 24.304 69.807 25.039 69.12 25.568C68.433 26.078 67.579 26.333 66.558 26.333C65.145 26.333 64.085 25.941 63.378 25.157C62.672 24.372 62.318 23.274 62.318 21.863C62.318 20.255 62.819 19.059 63.82 18.274C64.821 17.49 66.264 17.098 68.148 17.098H70.533V15.775C70.533 14.873 70.337 14.206 69.944 13.775C69.571 13.343 68.943 13.128 68.06 13.128C67.333 13.128 66.725 13.304 66.234 13.657C65.744 13.99 65.312 14.471 64.939 15.098L62.848 13.216C63.418 12.334 64.134 11.628 64.998 11.098C65.881 10.549 67 10.275 68.354 10.275C72.182 10.275 74.095 12.079 74.095 15.686V23.127H75.45V25.98H73.3ZM67.912 23.715C68.639 23.715 69.257 23.51 69.767 23.098C70.278 22.666 70.533 22.078 70.533 21.333V19.304H68.384C66.735 19.304 65.91 19.941 65.91 21.216V21.863C65.91 22.51 66.087 22.98 66.44 23.274C66.794 23.568 67.284 23.715 67.912 23.715Z" fill="white"/>
<path id="Vector_6" d="M47.914 4.21606H51.477V13.1861H51.889C52.497 11.2451 53.724 10.2751 55.569 10.2751C56.943 10.2751 58.003 10.7451 58.749 11.6871C59.495 12.6081 59.868 13.9311 59.868 15.6571V25.9801H56.305V16.2751C56.305 14.2751 55.559 13.2751 54.068 13.2751C53.341 13.2751 52.723 13.4901 52.213 13.9221C51.722 14.3331 51.477 14.9221 51.477 15.6861V25.9801H47.914V4.21606Z" fill="white"/>
</g>
<defs>
<clipPath id="clip0_2_1481">
<rect width="118" height="29" fill="white" transform="translate(0 0.780029)"/>
</clipPath>
</defs>
</svg>
