<svg width="46" height="16" viewBox="0 0 46 16" fill="none" xmlns="http://www.w3.org/2000/svg">
<g id="svg802969421_1696" clip-path="url(#clip0_2_2616)">
<g id="Clip path group">
<mask id="mask0_2_2616" style="mask-type:luminance" maskUnits="userSpaceOnUse" x="0" y="0" width="46" height="16">
<g id="svg802969421_1696_clip0_21_418">
<path id="Vector" d="M46 0H0V16H46V0Z" fill="white"/>
</g>
</mask>
<g mask="url(#mask0_2_2616)">
<g id="Group">
<path id="Vector_2" d="M10.9189 0C9.1225 0 7.39969 0.64536 6.12945 1.79411L1.98387 5.54315C0.71362 6.69189 0 8.24992 0 9.87451C0 13.2576 3.03254 16 6.77339 16C8.5698 16 10.2926 15.3546 11.5629 14.2059L14.4304 11.6126C14.4304 11.6126 14.4304 11.6127 14.4304 11.6126L22.7853 4.05685C23.392 3.50823 24.2148 3.2 25.0728 3.2C26.5091 3.2 27.7269 4.04663 28.149 5.21817L30.7859 2.83358C29.5831 1.12978 27.4739 0 25.0728 0C23.2764 0 21.5535 0.64536 20.2833 1.79411L9.06081 11.9432C8.45415 12.4918 7.63135 12.8 6.77339 12.8C4.98678 12.8 3.53846 11.4902 3.53846 9.87451C3.53846 9.09861 3.87929 8.35452 4.48595 7.80587L8.63149 4.05685C9.23815 3.50823 10.061 3.2 10.9189 3.2C12.3554 3.2 13.5731 4.04665 13.9953 5.21824L16.6321 2.83365C15.4292 1.12981 13.32 0 10.9189 0Z" fill="white"/>
<path id="Vector_3" d="M23.2147 11.9432C22.608 12.4918 21.7852 12.8 20.9272 12.8C19.491 12.8 18.2734 11.9536 17.8511 10.7822L15.2143 13.1668C16.4173 14.8704 18.5264 16 20.9272 16C22.7236 16 24.4465 15.3546 25.7167 14.2059L36.9391 4.05685C37.5458 3.50823 38.3686 3.2 39.2267 3.2C41.0133 3.2 42.4615 4.50978 42.4615 6.12549C42.4615 6.90139 42.1209 7.64549 41.5139 8.19413L37.3685 11.9432C36.7619 12.4918 35.939 12.8 35.081 12.8C33.6447 12.8 32.427 11.9534 32.0049 10.782L29.368 13.1666C30.5711 14.8703 32.68 16 35.081 16C36.8774 16 38.6002 15.3546 39.8706 14.2059L44.0161 10.4568C45.2865 9.30812 46 7.75008 46 6.12549C46 2.74247 42.9675 0 39.2267 0C37.4302 0 35.7074 0.64536 34.4372 1.79411L23.2147 11.9432Z" fill="white"/>
</g>
</g>
</g>
</g>
<defs>
<clipPath id="clip0_2_2616">
<rect width="46" height="16" fill="white"/>
</clipPath>
</defs>
</svg>
