<svg width="48" height="49" viewBox="0 0 48 49" fill="none" xmlns="http://www.w3.org/2000/svg">
<rect y="0.129883" width="48" height="48" rx="24" fill="#68CC58"/>
<path d="M29.3333 22.7964C31.5467 22.7964 33.32 21.0097 33.32 18.7964C33.32 16.5831 31.5467 14.7964 29.3333 14.7964C27.12 14.7964 25.3333 16.5831 25.3333 18.7964C25.3333 21.0097 27.12 22.7964 29.3333 22.7964ZM18.6667 22.7964C20.88 22.7964 22.6533 21.0097 22.6533 18.7964C22.6533 16.5831 20.88 14.7964 18.6667 14.7964C16.4533 14.7964 14.6667 16.5831 14.6667 18.7964C14.6667 21.0097 16.4533 22.7964 18.6667 22.7964ZM18.6667 25.4631C15.56 25.4631 9.33334 27.0231 9.33334 30.1297V33.4631H28V30.1297C28 27.0231 21.7733 25.4631 18.6667 25.4631ZM29.3333 25.4631C28.9467 25.4631 28.5067 25.4897 28.04 25.5297C29.5867 26.6497 30.6667 28.1564 30.6667 30.1297V33.4631H38.6667V30.1297C38.6667 27.0231 32.44 25.4631 29.3333 25.4631Z" fill="#0F0F10"/>
</svg>
