<svg width="276" height="197" viewBox="0 0 276 197" fill="none" xmlns="http://www.w3.org/2000/svg">
<g clip-path="url(#clip0_2_2101)">
<g clip-path="url(#clip1_2_2101)">
<path d="M191.5 103.27V28.27H254.5" stroke="#80858F"/>
</g>
<path d="M191.5 103.27V170.27H232" stroke="#404245"/>
<g clip-path="url(#clip2_2_2101)">
<path d="M191.5 103.27V28.27H254.5" stroke="#404245"/>
</g>
<rect width="255" height="1" transform="translate(1 103.77)" fill="url(#paint0_linear_2_2101)"/>
<rect x="244.98" y="17.77" width="24.02" height="24" rx="12" fill="#1A1C1E"/>
<path d="M260.98 25.77H252.98C252.43 25.77 251.985 26.22 251.985 26.77L251.98 32.77C251.98 33.32 252.43 33.77 252.98 33.77H260.98C261.53 33.77 261.98 33.32 261.98 32.77V26.77C261.98 26.22 261.53 25.77 260.98 25.77ZM260.98 27.77L256.98 30.27L252.98 27.77V26.77L256.98 29.27L260.98 26.77V27.77Z" fill="#CFD1D5"/>
<rect x="245.48" y="18.27" width="23.02" height="23" rx="11.5" stroke="#2C2D30"/>
<rect x="179.01" y="156.78" width="24" height="24" rx="12" fill="#1A1C1E"/>
<path d="M194.99 98.76H186.99C186.44 98.76 185.995 99.21 185.995 99.76L185.99 105.76C185.99 106.31 186.44 106.76 186.99 106.76H194.99C195.54 106.76 195.99 106.31 195.99 105.76V99.76C195.99 99.21 195.54 98.76 194.99 98.76ZM194.99 100.76L190.99 103.26L186.99 100.76V99.76L190.99 102.26L194.99 99.76V100.76Z" fill="#CFD1D5"/>
<rect width="24" height="24" transform="translate(180.01 90.77)" fill="#1A1C1E"/>
<rect x="86" y="64.77" width="74" height="74" rx="37" fill="#1A1C1E"/>
<rect x="112" y="88.77" width="4" height="3.98" rx="1.99" fill="#CFD1D5"/>
<rect x="109" y="98.77" width="6" height="5.98" rx="2.99" fill="#CFD1D5"/>
<rect x="112" y="110.78" width="4" height="3.98" rx="1.99" fill="#CFD1D5"/>
<rect x="120.73" y="85.77" width="6" height="5.98" rx="2.99" fill="#CFD1D5"/>
<rect x="119.73" y="97.77" width="8" height="7.98" rx="3.99" fill="#CFD1D5"/>
<rect x="120.73" y="111.78" width="6" height="5.98" rx="2.99" fill="#CFD1D5"/>
<rect x="131" y="88.77" width="5" height="4.98" rx="2.49" fill="#CFD1D5"/>
<rect x="133" y="98.77" width="6" height="5.98" rx="2.99" fill="#CFD1D5"/>
<rect x="131" y="109.78" width="5" height="4.98" rx="2.49" fill="#CFD1D5"/>
<rect x="86.5" y="65.27" width="73" height="73" rx="36.5" stroke="#2C2D30"/>
<rect x="226" y="74.77" width="50" height="50" rx="25" fill="#1A1C1E"/>
<path d="M255 98.77C256.66 98.77 257.99 97.43 257.99 95.77C257.99 94.11 256.66 92.77 255 92.77C253.34 92.77 252 94.11 252 95.77C252 97.43 253.34 98.77 255 98.77ZM247 98.77C248.66 98.77 249.99 97.43 249.99 95.77C249.99 94.11 248.66 92.77 247 92.77C245.34 92.77 244 94.11 244 95.77C244 97.43 245.34 98.77 247 98.77ZM247 100.77C244.67 100.77 240 101.94 240 104.27V106.77H254V104.27C254 101.94 249.33 100.77 247 100.77ZM255 100.77C254.71 100.77 254.38 100.79 254.03 100.82C255.19 101.66 256 102.79 256 104.27V106.77H262V104.27C262 101.94 257.33 100.77 255 100.77Z" fill="#CFD1D5"/>
<rect x="226.5" y="75.27" width="49" height="49" rx="24.5" stroke="#2C2D30"/>
<rect x="226" y="146.77" width="50" height="50" rx="25" fill="#1A1C1E"/>
<path d="M255 170.77C256.66 170.77 257.99 169.43 257.99 167.77C257.99 166.11 256.66 164.77 255 164.77C253.34 164.77 252 166.11 252 167.77C252 169.43 253.34 170.77 255 170.77ZM247 170.77C248.66 170.77 249.99 169.43 249.99 167.77C249.99 166.11 248.66 164.77 247 164.77C245.34 164.77 244 166.11 244 167.77C244 169.43 245.34 170.77 247 170.77ZM247 172.77C244.67 172.77 240 173.94 240 176.27V178.77H254V176.27C254 173.94 249.33 172.77 247 172.77ZM255 172.77C254.71 172.77 254.38 172.79 254.03 172.82C255.19 173.66 256 174.79 256 176.27V178.77H262V176.27C262 173.94 257.33 172.77 255 172.77Z" fill="#CFD1D5"/>
<rect x="226.5" y="147.27" width="49" height="49" rx="24.5" stroke="#2C2D30"/>
<rect x="226" y="1.77002" width="50" height="50" rx="25" fill="#1A1C1E"/>
<path d="M255 25.77C256.66 25.77 257.99 24.43 257.99 22.77C257.99 21.11 256.66 19.77 255 19.77C253.34 19.77 252 21.11 252 22.77C252 24.43 253.34 25.77 255 25.77ZM247 25.77C248.66 25.77 249.99 24.43 249.99 22.77C249.99 21.11 248.66 19.77 247 19.77C245.34 19.77 244 21.11 244 22.77C244 24.43 245.34 25.77 247 25.77ZM247 27.77C244.67 27.77 240 28.94 240 31.27V33.77H254V31.27C254 28.94 249.33 27.77 247 27.77ZM255 27.77C254.71 27.77 254.38 27.79 254.03 27.82C255.19 28.66 256 29.79 256 31.27V33.77H262V31.27C262 28.94 257.33 27.77 255 27.77Z" fill="#CFD1D5"/>
<rect x="226.5" y="2.27002" width="49" height="49" rx="24.5" stroke="#2C2D30"/>
</g>
<defs>
<linearGradient id="paint0_linear_2_2101" x1="0" y1="0.5" x2="255" y2="0.5" gradientUnits="userSpaceOnUse">
<stop stop-color="#131316"/>
<stop offset="1" stop-color="#5A616E"/>
</linearGradient>
<clipPath id="clip0_2_2101">
<rect width="276" height="196" fill="white" transform="translate(0 0.77002)"/>
</clipPath>
<clipPath id="clip1_2_2101">
<rect width="64" height="76" fill="white" transform="translate(191 27.77)"/>
</clipPath>
<clipPath id="clip2_2_2101">
<rect width="64" height="76" fill="white" transform="translate(191 27.77)"/>
</clipPath>
</defs>
</svg>
