<svg width="84" height="35" viewBox="0 0 84 35" fill="none" xmlns="http://www.w3.org/2000/svg">
<g id="svg8752602191" clip-path="url(#clip0_2_1564)">
<path id="Vector" d="M3.17301 31.16C3.50801 30.12 4.61801 30.073 5.44301 29.574C5.11201 29.315 4.77701 29.068 4.46701 28.784C2.46601 26.951 1.23301 24.531 0.880009 21.854C0.530009 19.203 1.46001 16.036 3.09901 13.943C5.45001 10.941 9.43701 9.13398 13.279 9.38698C16.204 9.58098 19.133 10.95 21.047 13.158L21.354 13.529C21.436 13.635 21.621 13.831 21.673 13.916L21.681 13.93C21.711 13.681 21.702 13.424 21.702 13.173L21.704 7.55598C21.705 7.37398 21.695 7.18398 21.717 7.00298L18.931 6.98798C18.816 6.98798 18.694 6.99698 18.58 6.98198C18.71 6.70698 18.953 6.45898 19.147 6.22598L22.092 2.56998C22.534 2.01398 22.951 1.42698 23.436 0.906982C23.561 1.01998 23.673 1.19098 23.779 1.32198L28.121 6.70498C28.187 6.79198 28.218 6.88498 28.298 6.96198L28.316 6.97998C28.23 6.99798 28.121 6.98598 28.031 6.98598L25.064 6.99398L25.059 18.43C25.046 19.449 24.804 20.422 24.203 21.27C23.961 21.612 24.002 21.886 23.944 22.288C23.607 24.649 22.559 26.809 20.856 28.495C20.46 28.887 20.017 29.221 19.617 29.605L20.454 29.934C20.773 30.059 21.116 30.186 21.389 30.396C22.652 31.365 21.911 33.315 20.427 33.393C19.033 33.466 17.28 32.244 16.316 31.384L15.998 31.506C13.945 32.262 10.77 32.297 8.72301 31.382C8.46701 31.688 8.11601 31.919 7.78501 32.14C6.76901 32.82 5.10201 33.873 3.90201 33.097C3.21701 32.655 3.01101 31.915 3.17301 31.16ZM11.998 12.736C11.137 12.808 10.288 12.975 9.48001 13.283C3.81401 15.439 2.26501 22.633 7.04201 26.574L7.78101 27.129C8.78801 25.572 8.94201 24.335 8.59501 22.595C8.36701 22.815 8.14701 23.058 7.84701 23.182C7.62101 23.009 7.45101 22.753 7.27901 22.53L5.92601 20.644L9.18301 17.908C9.34301 17.772 9.50101 17.631 9.68501 17.528C9.83801 17.744 9.94801 17.972 10.071 18.205L10.438 18.858C11.035 19.893 11.604 20.964 11.885 22.131C12.347 24.044 12.019 26.427 11.068 28.129C10.983 28.28 10.898 28.446 10.784 28.578L11.565 28.681C11.78 28.703 11.996 28.704 12.211 28.706L12.851 28.704C12.936 28.702 13.053 28.683 13.132 28.706L14.033 28.559C14.012 28.476 13.942 28.383 13.9 28.306L13.699 27.9C12.575 25.467 12.439 23.081 13.486 20.582C13.705 20.06 13.973 19.565 14.236 19.064L14.67 18.231C14.77 18.035 14.864 17.833 14.98 17.645L15.082 17.498C15.223 17.473 16.709 18.743 16.908 18.903C17.374 19.278 18.664 20.229 18.98 20.666L17.606 22.497C17.428 22.734 17.254 23.035 17.038 23.237C16.766 23.073 16.535 22.853 16.286 22.658C16.114 23.336 16.037 24.091 16.139 24.788C16.239 25.477 16.647 26.761 17.163 27.245C18.214 26.492 19.163 25.532 19.782 24.398C22.79 18.885 18.172 12.317 11.998 12.736Z" fill="white"/>
<path id="Vector_2" d="M43.429 27.797C42.138 27.797 41.064 27.471 40.207 26.82C39.349 26.169 38.699 25.268 38.256 24.118C37.814 22.968 37.556 21.633 37.482 20.114L40.248 19.235C40.303 20.168 40.428 21.069 40.622 21.937C40.815 22.805 41.133 23.516 41.576 24.069C42.018 24.622 42.636 24.899 43.429 24.899C44.24 24.899 44.853 24.633 45.268 24.102C45.683 23.57 45.891 22.805 45.891 21.807C45.891 20.613 45.66 19.652 45.199 18.926C44.738 18.198 44.157 17.466 43.457 16.728L39.695 12.822C38.957 12.063 38.413 11.232 38.063 10.332C37.712 9.43098 37.537 8.31798 37.537 6.99398C37.537 5.06298 38.008 3.56598 38.948 2.50198C39.889 1.43898 41.17 0.906982 42.793 0.906982C43.678 0.906982 44.457 1.04298 45.13 1.31398C45.803 1.58598 46.366 2.00298 46.817 2.56698C47.269 3.13198 47.628 3.84198 47.896 4.69898C48.163 5.55698 48.343 6.56098 48.435 7.71098L45.78 8.55698C45.724 7.68898 45.614 6.89198 45.448 6.16398C45.282 5.43798 44.992 4.85198 44.577 4.40598C44.162 3.96198 43.567 3.73998 42.793 3.73998C42.018 3.73998 41.415 3.98298 40.981 4.47198C40.547 4.95998 40.331 5.68098 40.331 6.63698C40.331 7.43998 40.446 8.10098 40.677 8.62198C40.908 9.14298 41.281 9.67498 41.797 10.217L45.586 14.124C46.435 14.992 47.181 16.028 47.827 17.233C48.472 18.437 48.795 19.864 48.795 21.514C48.795 22.815 48.565 23.939 48.103 24.883C47.642 25.827 47.011 26.549 46.209 27.048C45.406 27.547 44.48 27.797 43.429 27.797ZM53.386 27.764C52.759 27.764 52.206 27.552 51.726 27.129C51.247 26.706 50.869 26.163 50.593 25.502C50.316 24.839 50.177 24.139 50.177 23.402C50.177 22.23 50.344 21.242 50.676 20.439C51.007 19.636 51.464 18.958 52.044 18.404C52.625 17.851 53.298 17.368 54.064 16.956C54.829 16.544 55.635 16.142 56.484 15.751V14.417C56.484 13.657 56.447 13.028 56.373 12.528C56.3 12.029 56.147 11.655 55.917 11.405C55.686 11.156 55.341 11.031 54.879 11.031C54.474 11.031 54.147 11.14 53.898 11.357C53.649 11.574 53.469 11.883 53.359 12.285C53.248 12.687 53.193 13.158 53.193 13.701V14.645L50.261 14.515C50.297 12.431 50.703 10.896 51.478 9.90798C52.252 8.92098 53.451 8.42698 55.073 8.42698C56.659 8.42698 57.784 8.93698 58.448 9.95698C59.112 10.977 59.443 12.453 59.443 14.385V22.979C59.443 23.564 59.457 24.129 59.485 24.671C59.513 25.214 59.549 25.719 59.595 26.185C59.642 26.651 59.683 27.091 59.72 27.503H57.009C56.954 27.156 56.885 26.717 56.802 26.185C56.719 25.653 56.659 25.17 56.622 24.737C56.438 25.474 56.083 26.163 55.558 26.803C55.032 27.444 54.308 27.764 53.386 27.764ZM54.548 24.769C54.843 24.769 55.12 24.671 55.378 24.476C55.635 24.281 55.866 24.058 56.069 23.809C56.272 23.559 56.41 23.358 56.484 23.206V17.868C56.023 18.171 55.59 18.475 55.184 18.779C54.778 19.083 54.423 19.403 54.119 19.739C53.815 20.076 53.575 20.456 53.4 20.879C53.224 21.302 53.137 21.785 53.137 22.327C53.137 23.087 53.257 23.684 53.497 24.118C53.736 24.552 54.087 24.769 54.548 24.769ZM66.524 33.396C65.547 33.396 64.666 33.271 63.883 33.021C63.099 32.772 62.481 32.386 62.029 31.866C61.578 31.345 61.352 30.661 61.352 29.815C61.352 29.164 61.481 28.594 61.739 28.106C61.997 27.617 62.329 27.2 62.735 26.852C63.14 26.505 63.565 26.234 64.007 26.039L65.39 26.267C65.15 26.527 64.92 26.792 64.699 27.064C64.477 27.335 64.293 27.617 64.145 27.91C63.998 28.203 63.924 28.523 63.924 28.871C63.924 29.435 64.132 29.858 64.546 30.14C64.962 30.422 65.703 30.563 66.773 30.563C67.824 30.563 68.603 30.417 69.11 30.124C69.617 29.831 69.871 29.37 69.871 28.74C69.871 28.35 69.806 28.03 69.678 27.78C69.548 27.531 69.327 27.33 69.013 27.178C68.7 27.026 68.248 26.917 67.658 26.852L64.173 26.332C63.454 26.223 62.919 25.951 62.569 25.518C62.218 25.084 62.043 24.606 62.043 24.086C62.043 23.304 62.232 22.642 62.61 22.099C62.989 21.557 63.5 20.95 64.145 20.276L65.141 21.188C65.031 21.362 64.892 21.606 64.726 21.921C64.56 22.235 64.477 22.545 64.477 22.848C64.477 23.087 64.583 23.282 64.795 23.434C65.008 23.586 65.344 23.684 65.805 23.727L68.488 24.021C69.741 24.15 70.673 24.596 71.282 25.355C71.89 26.115 72.194 27.2 72.194 28.61C72.194 29.652 71.987 30.531 71.572 31.247C71.157 31.963 70.534 32.501 69.705 32.859C68.875 33.217 67.815 33.396 66.524 33.396ZM66.635 21.709C65.547 21.709 64.662 21.427 63.979 20.862C63.297 20.298 62.795 19.517 62.472 18.519C62.149 17.521 61.988 16.381 61.988 15.1C61.988 13.646 62.163 12.426 62.514 11.439C62.864 10.451 63.385 9.70198 64.077 9.19198C64.768 8.68198 65.62 8.42698 66.635 8.42698C67.686 8.42698 68.543 8.73598 69.207 9.35498C69.871 9.97398 70.359 10.793 70.673 11.813C70.986 12.833 71.143 13.961 71.143 15.198C71.143 16.479 71 17.613 70.715 18.6C70.428 19.587 69.959 20.352 69.304 20.895C68.649 21.438 67.76 21.709 66.635 21.709ZM66.635 19.203C67.041 19.203 67.363 19.11 67.603 18.926C67.843 18.741 68.023 18.475 68.142 18.128C68.262 17.781 68.345 17.352 68.391 16.842C68.437 16.332 68.46 15.751 68.46 15.1C68.46 14.45 68.442 13.863 68.405 13.343C68.368 12.822 68.285 12.382 68.156 12.024C68.027 11.666 67.843 11.389 67.603 11.194C67.363 10.999 67.049 10.901 66.662 10.901C66.256 10.901 65.93 10.993 65.681 11.178C65.432 11.363 65.238 11.634 65.1 11.992C64.962 12.35 64.869 12.789 64.823 13.31C64.777 13.831 64.754 14.428 64.754 15.1C64.754 15.687 64.777 16.229 64.823 16.728C64.869 17.228 64.957 17.662 65.086 18.03C65.215 18.399 65.404 18.687 65.653 18.893C65.902 19.099 66.229 19.203 66.635 19.203ZM70.59 11.845L69.898 10.543C70.046 10.24 70.378 9.85898 70.894 9.40398C71.411 8.94798 71.964 8.56798 72.554 8.26398L73.328 10.543C73.07 10.608 72.725 10.728 72.291 10.901C71.858 11.075 71.466 11.254 71.115 11.439C70.765 11.622 70.59 11.758 70.59 11.845ZM78.777 27.764C77.523 27.764 76.555 27.476 75.873 26.901C75.191 26.326 74.716 25.48 74.449 24.362C74.181 23.245 74.048 21.872 74.048 20.244V15.947C74.048 14.276 74.186 12.887 74.462 11.78C74.739 10.673 75.223 9.83798 75.914 9.27398C76.606 8.70898 77.56 8.42698 78.777 8.42698C80.123 8.42698 81.114 8.75198 81.75 9.40398C82.386 10.055 82.806 10.993 83.009 12.22C83.211 13.446 83.313 14.916 83.313 16.631V18.161H77.007V21.937C77.007 22.697 77.067 23.315 77.187 23.792C77.306 24.27 77.5 24.622 77.767 24.851C78.035 25.078 78.381 25.192 78.805 25.192C79.247 25.192 79.584 25.068 79.814 24.818C80.045 24.568 80.201 24.21 80.284 23.744C80.368 23.277 80.409 22.729 80.409 22.099V20.96H83.285V21.676C83.285 23.564 82.944 25.051 82.262 26.136C81.58 27.221 80.418 27.764 78.777 27.764ZM77.007 16.273H80.409V14.58C80.409 13.798 80.372 13.142 80.298 12.61C80.225 12.079 80.072 11.677 79.842 11.405C79.612 11.134 79.247 10.999 78.75 10.999C78.27 10.999 77.906 11.129 77.657 11.389C77.408 11.65 77.237 12.089 77.145 12.708C77.053 13.327 77.007 14.178 77.007 15.263V16.273Z" fill="white"/>
</g>
<defs>
<clipPath id="clip0_2_1564">
<rect width="84" height="34" fill="white" transform="translate(0 0.280029)"/>
</clipPath>
</defs>
</svg>
