<svg width="102" height="48" viewBox="0 0 102 48" fill="none" xmlns="http://www.w3.org/2000/svg">
<g id="svg11130043360" clip-path="url(#clip0_2_1498)">
<path id="Vector" d="M17.635 2.47297L16.989 2.48397C17.198 2.13797 17.276 1.63297 17.482 1.24597C17.851 1.67197 17.899 2.18197 18.144 2.44597L17.635 2.47297Z" fill="white"/>
<path id="Vector_2" d="M9.73301 23.088L8.06601 22.452C7.62301 22.304 7.06501 22.295 6.76401 21.897C6.45101 21.483 6.18301 21.02 5.93601 20.564C2.88901 14.933 4.25001 7.96803 8.28501 3.22803C8.63201 2.82103 8.98901 2.32703 9.41601 2.00403L9.48601 2.03903C9.90501 2.25103 10.216 2.60403 10.568 2.90603L11.989 4.16203C12.2 4.36303 13.933 6.11903 13.937 6.34503C13.937 6.35103 13.886 6.42403 13.881 6.43103L12.068 9.46003C10.093 13.112 9.20801 17.32 9.90201 21.449C10.007 22.076 10.199 22.681 10.297 23.309L9.73301 23.088Z" fill="white"/>
<path id="Vector_3" d="M25.564 23.061L24.928 23.292L25.195 22.12C26.424 16.202 24.418 11.381 21.357 6.55704C21.331 6.51604 21.219 6.35304 21.23 6.31304C21.416 5.65504 24.703 2.68004 25.725 2.04504C26.138 2.28404 26.499 2.72404 26.805 3.08504C31.117 8.18904 32.381 15.573 28.771 21.429C28.428 21.986 28.324 22.104 27.711 22.299L25.564 23.061Z" fill="white"/>
<path id="Vector_4" d="M17.638 30.2271H17.574C17.429 30.0511 17.312 29.8181 17.193 29.6221L16.404 28.2931C15.978 27.5621 15.549 26.8311 15.194 26.0621C12.794 20.8621 13.42 14.7021 16.566 9.95708C16.852 9.52608 17.163 9.02008 17.56 8.69008L17.631 8.67908C18.128 9.19608 18.51 9.83508 18.868 10.4541C20.663 13.5591 21.745 17.0991 21.425 20.7181C21.185 23.4241 20.142 25.9281 18.818 28.2691L17.638 30.2271Z" fill="white"/>
<path id="Vector_5" d="M14.171 38.15L12.723 38.234C9.344 38.242 6.26 37.186 3.814 34.731C1.582 32.49 0.265003 29.099 0.259003 25.929C0.723003 25.77 1.2 25.743 1.685 25.718C5.137 25.656 8.224 26.435 10.928 28.762C13.476 30.954 15.32 34.565 15.586 37.966L14.171 38.15Z" fill="white"/>
<path id="Vector_6" d="M22.76 38.234L19.595 37.979C19.671 36.238 20.817 33.22 21.683 31.808C23.87 28.239 27.701 25.989 31.862 25.719C32.91 25.682 33.943 25.703 34.982 25.832V25.886C34.978 26.481 34.892 27.094 34.8 27.681C33.838 33.861 29.156 38.27 22.76 38.234Z" fill="white"/>
<path id="Vector_7" d="M18.516 47.2621L15.961 47.2441V43.9611C15.961 43.3671 15.915 42.7281 15.988 42.1411L16.809 42.1111L19.255 42.1181L19.266 47.2581L18.516 47.2621Z" fill="white"/>
<path id="Vector_8" d="M51.776 37.134V14.512H47.535V11.895H59.392V14.512H55.274V37.134H51.776ZM64.531 37.383C63.128 37.383 62.044 37.108 61.281 36.558C60.517 36.007 59.985 35.197 59.686 34.127C59.387 33.057 59.237 31.743 59.237 30.186V26.072C59.237 24.473 59.392 23.143 59.701 22.084C60.011 21.024 60.553 20.225 61.327 19.684C62.101 19.144 63.169 18.875 64.531 18.875C66.038 18.875 67.147 19.186 67.859 19.81C68.571 20.432 69.041 21.331 69.268 22.504C69.495 23.678 69.609 25.086 69.609 26.727V28.191H62.55V31.806C62.55 32.533 62.617 33.125 62.751 33.582C62.885 34.039 63.102 34.376 63.401 34.595C63.7 34.813 64.088 34.922 64.562 34.922C65.058 34.922 65.434 34.802 65.692 34.563C65.95 34.325 66.126 33.982 66.218 33.535C66.311 33.089 66.358 32.564 66.358 31.962V30.871H69.577V31.556C69.577 33.364 69.196 34.787 68.432 35.826C67.668 36.864 66.368 37.383 64.531 37.383ZM62.55 26.384H66.358V24.764C66.358 24.016 66.316 23.387 66.234 22.879C66.151 22.369 65.981 21.985 65.723 21.726C65.465 21.466 65.058 21.336 64.5 21.336C63.963 21.336 63.556 21.461 63.277 21.71C62.999 21.959 62.808 22.38 62.705 22.972C62.602 23.564 62.55 24.38 62.55 25.418V26.384ZM72.705 37.134V19.124H76.017V21.679C76.678 20.578 77.338 19.84 77.999 19.467C78.659 19.092 79.32 18.906 79.98 18.906C80.063 18.906 80.14 18.906 80.212 18.906C80.284 18.906 80.383 18.916 80.506 18.937V22.614C80.259 22.51 79.974 22.422 79.655 22.349C79.335 22.276 79.01 22.24 78.679 22.24C78.164 22.24 77.694 22.359 77.271 22.598C76.848 22.837 76.43 23.299 76.017 23.984V37.134H72.705ZM82.642 37.134V19.124H85.955V21.679C86.615 20.578 87.276 19.84 87.937 19.467C88.597 19.092 89.258 18.906 89.918 18.906C90.001 18.906 90.078 18.906 90.15 18.906C90.222 18.906 90.32 18.916 90.444 18.937V22.614C90.196 22.51 89.913 22.422 89.593 22.349C89.273 22.276 88.948 22.24 88.618 22.24C88.101 22.24 87.632 22.359 87.209 22.598C86.786 22.837 86.368 23.299 85.955 23.984V37.134H82.642ZM94.902 37.383C94.2 37.383 93.582 37.181 93.045 36.776C92.508 36.371 92.085 35.851 91.775 35.218C91.466 34.584 91.311 33.914 91.311 33.208C91.311 32.086 91.497 31.141 91.868 30.372C92.24 29.604 92.751 28.955 93.401 28.425C94.051 27.895 94.805 27.433 95.661 27.038C96.517 26.643 97.42 26.259 98.37 25.886V24.608C98.37 23.881 98.329 23.278 98.247 22.8C98.163 22.323 97.993 21.964 97.736 21.726C97.477 21.487 97.091 21.367 96.574 21.367C96.12 21.367 95.754 21.471 95.475 21.679C95.196 21.887 94.996 22.183 94.871 22.567C94.748 22.951 94.686 23.403 94.686 23.923V24.826L91.404 24.702C91.445 22.707 91.9 21.238 92.766 20.292C93.633 19.347 94.975 18.875 96.791 18.875C98.566 18.875 99.825 19.363 100.568 20.339C101.311 21.315 101.683 22.728 101.683 24.576V32.803C101.683 33.364 101.698 33.904 101.729 34.423C101.76 34.942 101.801 35.425 101.853 35.872C101.905 36.319 101.951 36.739 101.993 37.134H98.959C98.896 36.802 98.819 36.381 98.726 35.872C98.633 35.363 98.566 34.901 98.525 34.486C98.319 35.192 97.921 35.851 97.333 36.464C96.745 37.077 95.934 37.383 94.902 37.383ZM96.203 34.517C96.533 34.517 96.843 34.423 97.131 34.236C97.42 34.049 97.679 33.836 97.906 33.598C98.132 33.359 98.287 33.166 98.37 33.021V27.911C97.854 28.202 97.369 28.493 96.915 28.783C96.46 29.074 96.063 29.381 95.723 29.703C95.382 30.025 95.115 30.388 94.918 30.793C94.722 31.198 94.624 31.661 94.624 32.18C94.624 32.907 94.758 33.478 95.026 33.894C95.295 34.309 95.687 34.517 96.203 34.517Z" fill="white"/>
</g>
<defs>
<clipPath id="clip0_2_1498">
<rect width="102" height="47" fill="white" transform="translate(0 0.780029)"/>
</clipPath>
</defs>
</svg>
