<svg width="111" height="42" viewBox="0 0 111 42" fill="none" xmlns="http://www.w3.org/2000/svg">
<g id="svg11965005761">
<path id="Vector" d="M29.237 33.222L23.713 37.092C21.534 38.672 20.44 38.557 18.395 37.107L5.369 28.031C2.694 26.227 2.705 25.76 2.704 22.442L2.703 14.008C2.706 8.76603 6.573 4.28103 11.91 3.99103L13.175 3.98803C15.326 4.07403 17.718 5.11902 19.348 6.46703C19.943 6.95802 20.47 7.52203 20.992 8.08803C22.507 6.28503 24.489 4.95403 26.765 4.32603C30.795 3.21503 35.059 4.75603 37.518 8.15003C38.231 9.13303 38.893 10.682 39.126 11.88C39.387 13.221 39.318 14.606 39.318 15.965L39.316 23.279C39.316 23.776 39.355 24.309 39.274 24.799C39.006 26.425 38.058 27.119 36.789 27.955L29.237 33.222ZM8.325 11.693C7.397 11.772 6.661 12.479 6.758 13.452C6.852 14.395 7.648 14.742 8.337 15.219L19.258 22.852C20.832 23.97 21.466 23.753 23.08 22.676L33.827 15.181L34.588 14.653C36.473 13.226 34.418 10.64 32.383 12.183L31.639 12.756L21.413 19.881C21.298 19.965 21.184 20.058 21.058 20.124L10.537 12.773C9.869 12.301 9.201 11.664 8.325 11.693ZM34.199 20.661C33.54 20.723 33.127 21.134 32.611 21.501L29.085 23.925L22.557 28.461C22.384 28.582 21.074 29.546 20.997 29.523C20.965 29.513 20.892 29.445 20.862 29.423L10.361 22.074C9.788 21.667 8.838 20.866 8.152 20.697C6.498 20.288 5.388 22.431 6.81 23.581L7.848 24.33L18.666 31.875C19.86 32.713 20.815 33.591 22.335 32.635L34.739 23.956C35.464 23.45 36.157 23.037 35.928 21.935C35.769 21.169 34.97 20.608 34.199 20.661Z" fill="white"/>
<path id="Vector_2" d="M105.275 12.88L103.368 12.546V11.155L108.135 10.589H108.188L108.884 11.078V29.951L110.765 30.157V31.702H103.471V30.157L105.275 29.925V12.88Z" fill="white"/>
<path id="Vector_3" d="M89.156 27.685C89.156 26.123 89.938 24.947 91.501 24.158C93.082 23.368 95.118 22.965 97.61 22.948V22.356C97.61 21.652 97.533 21.102 97.378 20.708C97.24 20.313 96.974 20.021 96.578 19.832C96.201 19.626 95.642 19.523 94.903 19.523C94.062 19.523 93.305 19.635 92.635 19.858C91.965 20.064 91.269 20.339 90.548 20.682L89.749 19.034C90.006 18.811 90.436 18.545 91.037 18.236C91.656 17.927 92.386 17.661 93.228 17.438C94.07 17.197 94.938 17.077 95.831 17.077C97.154 17.077 98.186 17.249 98.924 17.592C99.68 17.936 100.222 18.485 100.548 19.24C100.875 19.995 101.038 21.008 101.038 22.278V30.157H102.43V31.599C102.085 31.685 101.596 31.771 100.961 31.856C100.324 31.942 99.766 31.985 99.285 31.985C98.7 31.985 98.306 31.899 98.1 31.728C97.91 31.556 97.816 31.204 97.816 30.672V29.977C97.352 30.492 96.75 30.955 96.011 31.367C95.273 31.779 94.44 31.985 93.511 31.985C92.721 31.985 91.991 31.822 91.321 31.496C90.668 31.153 90.144 30.663 89.749 30.028C89.353 29.376 89.156 28.595 89.156 27.685ZM95.162 29.848C95.522 29.848 95.934 29.745 96.398 29.539C96.862 29.316 97.266 29.05 97.61 28.741V24.518C96.064 24.518 94.903 24.784 94.13 25.316C93.374 25.831 92.996 26.501 92.996 27.325C92.996 28.149 93.185 28.775 93.563 29.204C93.958 29.633 94.491 29.848 95.162 29.848Z" fill="white"/>
<path id="Vector_4" d="M83.506 31.9341C82.424 31.9341 81.625 31.6851 81.109 31.1871C80.594 30.6891 80.336 29.9001 80.336 28.8181V19.3691H78.661V18.0301C78.798 17.9781 79.047 17.8931 79.408 17.7721C79.769 17.6351 80.044 17.5241 80.233 17.4381C80.525 17.2151 80.774 16.8281 80.98 16.2791C81.135 15.9191 81.418 15.0261 81.831 13.6011H83.893L83.996 17.3861H87.939V19.3691H84.022V26.6041C84.022 27.5651 84.047 28.2431 84.099 28.6381C84.15 29.0331 84.262 29.2901 84.434 29.4101C84.606 29.5131 84.907 29.5651 85.336 29.5651C85.766 29.5651 86.212 29.5221 86.676 29.4361C87.14 29.3331 87.527 29.2131 87.836 29.0761L88.326 30.5171C87.845 30.8781 87.14 31.2041 86.212 31.4961C85.284 31.7881 84.382 31.9341 83.506 31.9341Z" fill="white"/>
<path id="Vector_5" d="M73.566 15.0431C72.947 15.0431 72.457 14.8631 72.096 14.5031C71.736 14.1421 71.555 13.6791 71.555 13.1121C71.555 12.4601 71.761 11.9191 72.174 11.4901C72.586 11.0611 73.136 10.8461 73.823 10.8461C74.511 10.8461 75.035 11.0351 75.395 11.4131C75.756 11.7731 75.937 12.2281 75.937 12.7771C75.937 13.4641 75.731 14.0131 75.318 14.4251C74.906 14.8371 74.33 15.0431 73.591 15.0431H73.566ZM72.2 19.8321L70.37 19.3431V17.6181L75.086 17.0521H75.138L75.859 17.5671V29.9511L77.586 30.1571V31.7021H70.395V30.1571L72.2 29.9251V19.8321Z" fill="white"/>
<path id="Vector_6" d="M51.438 12.571H59.273V14.168L57.083 14.502L60.923 26.037L61.67 28.638L62.315 26.012L65.923 14.502L63.887 14.168V12.571H70.124V14.168L68.475 14.502L62.547 31.882H59.48L52.985 14.502L51.438 14.168V12.571Z" fill="white"/>
</g>
</svg>
